<mxfile host="app.diagrams.net" modified="2021-04-06T03:02:46.373Z" agent="5.0 (Windows NT 10.0; Win64; x64) AppleWebKit/537.36 (KHTML, like Gecko) Chrome/89.0.4389.114 Safari/537.36" etag="uJAh9MqPk2JCja4czLEY" version="14.5.4" type="github">
  <diagram id="0zPlX9RAVJA1pPjD0E5a" name="Page-1">
    <mxGraphModel dx="2831" dy="1366" grid="1" gridSize="10" guides="1" tooltips="1" connect="1" arrows="1" fold="1" page="1" pageScale="1" pageWidth="827" pageHeight="1169" math="0" shadow="0">
      <root>
        <mxCell id="0" />
        <mxCell id="1" parent="0" />
        <mxCell id="On_WgqyoTD6OHEVV_2II-24" style="edgeStyle=orthogonalEdgeStyle;rounded=0;orthogonalLoop=1;jettySize=auto;html=1;exitX=0.5;exitY=1;exitDx=0;exitDy=0;entryX=0.5;entryY=0;entryDx=0;entryDy=0;" edge="1" parent="1" source="On_WgqyoTD6OHEVV_2II-1" target="On_WgqyoTD6OHEVV_2II-3">
          <mxGeometry relative="1" as="geometry">
            <mxPoint x="280" y="180" as="targetPoint" />
          </mxGeometry>
        </mxCell>
        <mxCell id="On_WgqyoTD6OHEVV_2II-25" style="edgeStyle=orthogonalEdgeStyle;rounded=0;orthogonalLoop=1;jettySize=auto;html=1;exitX=0.5;exitY=1;exitDx=0;exitDy=0;" edge="1" parent="1" source="On_WgqyoTD6OHEVV_2II-1" target="On_WgqyoTD6OHEVV_2II-2">
          <mxGeometry relative="1" as="geometry" />
        </mxCell>
        <mxCell id="On_WgqyoTD6OHEVV_2II-26" style="edgeStyle=orthogonalEdgeStyle;rounded=0;orthogonalLoop=1;jettySize=auto;html=1;exitX=0.5;exitY=1;exitDx=0;exitDy=0;entryX=0.5;entryY=0;entryDx=0;entryDy=0;" edge="1" parent="1" source="On_WgqyoTD6OHEVV_2II-1" target="On_WgqyoTD6OHEVV_2II-16">
          <mxGeometry relative="1" as="geometry" />
        </mxCell>
        <mxCell id="On_WgqyoTD6OHEVV_2II-1" value="教师模块" style="rounded=0;whiteSpace=wrap;html=1;" vertex="1" parent="1">
          <mxGeometry x="220" y="90" width="120" height="60" as="geometry" />
        </mxCell>
        <mxCell id="On_WgqyoTD6OHEVV_2II-33" style="edgeStyle=orthogonalEdgeStyle;rounded=0;orthogonalLoop=1;jettySize=auto;html=1;exitX=0.5;exitY=1;exitDx=0;exitDy=0;entryX=0.5;entryY=0;entryDx=0;entryDy=0;" edge="1" parent="1" source="On_WgqyoTD6OHEVV_2II-2" target="On_WgqyoTD6OHEVV_2II-12">
          <mxGeometry relative="1" as="geometry" />
        </mxCell>
        <mxCell id="On_WgqyoTD6OHEVV_2II-34" style="edgeStyle=orthogonalEdgeStyle;rounded=0;orthogonalLoop=1;jettySize=auto;html=1;exitX=0.5;exitY=1;exitDx=0;exitDy=0;entryX=0.5;entryY=0;entryDx=0;entryDy=0;" edge="1" parent="1" source="On_WgqyoTD6OHEVV_2II-2" target="On_WgqyoTD6OHEVV_2II-4">
          <mxGeometry relative="1" as="geometry" />
        </mxCell>
        <mxCell id="On_WgqyoTD6OHEVV_2II-35" style="edgeStyle=orthogonalEdgeStyle;rounded=0;orthogonalLoop=1;jettySize=auto;html=1;exitX=0.5;exitY=1;exitDx=0;exitDy=0;entryX=0.5;entryY=0;entryDx=0;entryDy=0;" edge="1" parent="1" source="On_WgqyoTD6OHEVV_2II-2" target="On_WgqyoTD6OHEVV_2II-13">
          <mxGeometry relative="1" as="geometry" />
        </mxCell>
        <mxCell id="On_WgqyoTD6OHEVV_2II-2" value="课程管理模块" style="rounded=0;whiteSpace=wrap;html=1;" vertex="1" parent="1">
          <mxGeometry x="-170" y="290" width="120" height="60" as="geometry" />
        </mxCell>
        <mxCell id="On_WgqyoTD6OHEVV_2II-27" style="edgeStyle=orthogonalEdgeStyle;rounded=0;orthogonalLoop=1;jettySize=auto;html=1;exitX=0.5;exitY=1;exitDx=0;exitDy=0;" edge="1" parent="1" source="On_WgqyoTD6OHEVV_2II-3" target="On_WgqyoTD6OHEVV_2II-5">
          <mxGeometry relative="1" as="geometry" />
        </mxCell>
        <mxCell id="On_WgqyoTD6OHEVV_2II-28" style="edgeStyle=orthogonalEdgeStyle;rounded=0;orthogonalLoop=1;jettySize=auto;html=1;exitX=0.5;exitY=1;exitDx=0;exitDy=0;" edge="1" parent="1" source="On_WgqyoTD6OHEVV_2II-3" target="On_WgqyoTD6OHEVV_2II-8">
          <mxGeometry relative="1" as="geometry" />
        </mxCell>
        <mxCell id="On_WgqyoTD6OHEVV_2II-29" style="edgeStyle=orthogonalEdgeStyle;rounded=0;orthogonalLoop=1;jettySize=auto;html=1;exitX=0.5;exitY=1;exitDx=0;exitDy=0;entryX=0.5;entryY=0;entryDx=0;entryDy=0;" edge="1" parent="1" source="On_WgqyoTD6OHEVV_2II-3" target="On_WgqyoTD6OHEVV_2II-9">
          <mxGeometry relative="1" as="geometry" />
        </mxCell>
        <mxCell id="On_WgqyoTD6OHEVV_2II-30" style="edgeStyle=orthogonalEdgeStyle;rounded=0;orthogonalLoop=1;jettySize=auto;html=1;exitX=0.5;exitY=1;exitDx=0;exitDy=0;entryX=0.5;entryY=0;entryDx=0;entryDy=0;" edge="1" parent="1" source="On_WgqyoTD6OHEVV_2II-3" target="On_WgqyoTD6OHEVV_2II-10">
          <mxGeometry relative="1" as="geometry" />
        </mxCell>
        <mxCell id="On_WgqyoTD6OHEVV_2II-31" style="edgeStyle=orthogonalEdgeStyle;rounded=0;orthogonalLoop=1;jettySize=auto;html=1;exitX=0.5;exitY=1;exitDx=0;exitDy=0;entryX=0.5;entryY=0;entryDx=0;entryDy=0;" edge="1" parent="1" source="On_WgqyoTD6OHEVV_2II-3" target="On_WgqyoTD6OHEVV_2II-7">
          <mxGeometry relative="1" as="geometry" />
        </mxCell>
        <mxCell id="On_WgqyoTD6OHEVV_2II-32" style="edgeStyle=orthogonalEdgeStyle;rounded=0;orthogonalLoop=1;jettySize=auto;html=1;exitX=0.5;exitY=1;exitDx=0;exitDy=0;entryX=0.5;entryY=0;entryDx=0;entryDy=0;" edge="1" parent="1" source="On_WgqyoTD6OHEVV_2II-3" target="On_WgqyoTD6OHEVV_2II-11">
          <mxGeometry relative="1" as="geometry" />
        </mxCell>
        <mxCell id="On_WgqyoTD6OHEVV_2II-3" value="个人主页模块" style="rounded=0;whiteSpace=wrap;html=1;" vertex="1" parent="1">
          <mxGeometry x="220" y="290" width="120" height="60" as="geometry" />
        </mxCell>
        <mxCell id="On_WgqyoTD6OHEVV_2II-4" value="课程上线申请" style="rounded=0;whiteSpace=wrap;html=1;" vertex="1" parent="1">
          <mxGeometry x="-230" y="410" width="60" height="60" as="geometry" />
        </mxCell>
        <mxCell id="On_WgqyoTD6OHEVV_2II-5" value="教师注册/登陆" style="rounded=0;whiteSpace=wrap;html=1;" vertex="1" parent="1">
          <mxGeometry x="110" y="410" width="50" height="60" as="geometry" />
        </mxCell>
        <mxCell id="On_WgqyoTD6OHEVV_2II-7" value="注销账号" style="rounded=0;whiteSpace=wrap;html=1;" vertex="1" parent="1">
          <mxGeometry x="360" y="410" width="50" height="60" as="geometry" />
        </mxCell>
        <mxCell id="On_WgqyoTD6OHEVV_2II-8" value="个人信息管理" style="rounded=0;whiteSpace=wrap;html=1;" vertex="1" parent="1">
          <mxGeometry x="170" y="410" width="50" height="60" as="geometry" />
        </mxCell>
        <mxCell id="On_WgqyoTD6OHEVV_2II-9" value="发表教学动态" style="rounded=0;whiteSpace=wrap;html=1;" vertex="1" parent="1">
          <mxGeometry x="230" y="410" width="50" height="60" as="geometry" />
        </mxCell>
        <mxCell id="On_WgqyoTD6OHEVV_2II-10" value="消息通知" style="rounded=0;whiteSpace=wrap;html=1;" vertex="1" parent="1">
          <mxGeometry x="290" y="410" width="50" height="60" as="geometry" />
        </mxCell>
        <mxCell id="On_WgqyoTD6OHEVV_2II-11" value="查看APP导航" style="rounded=0;whiteSpace=wrap;html=1;" vertex="1" parent="1">
          <mxGeometry x="420" y="410" width="50" height="60" as="geometry" />
        </mxCell>
        <mxCell id="On_WgqyoTD6OHEVV_2II-36" style="edgeStyle=orthogonalEdgeStyle;rounded=0;orthogonalLoop=1;jettySize=auto;html=1;exitX=0.5;exitY=1;exitDx=0;exitDy=0;entryX=0.5;entryY=0;entryDx=0;entryDy=0;" edge="1" parent="1" source="On_WgqyoTD6OHEVV_2II-12" target="On_WgqyoTD6OHEVV_2II-21">
          <mxGeometry relative="1" as="geometry" />
        </mxCell>
        <mxCell id="On_WgqyoTD6OHEVV_2II-37" style="edgeStyle=orthogonalEdgeStyle;rounded=0;orthogonalLoop=1;jettySize=auto;html=1;exitX=0.5;exitY=1;exitDx=0;exitDy=0;entryX=0.5;entryY=0;entryDx=0;entryDy=0;" edge="1" parent="1" source="On_WgqyoTD6OHEVV_2II-12" target="On_WgqyoTD6OHEVV_2II-22">
          <mxGeometry relative="1" as="geometry" />
        </mxCell>
        <mxCell id="On_WgqyoTD6OHEVV_2II-38" style="edgeStyle=orthogonalEdgeStyle;rounded=0;orthogonalLoop=1;jettySize=auto;html=1;exitX=0.5;exitY=1;exitDx=0;exitDy=0;entryX=0.5;entryY=0;entryDx=0;entryDy=0;" edge="1" parent="1" source="On_WgqyoTD6OHEVV_2II-12" target="On_WgqyoTD6OHEVV_2II-20">
          <mxGeometry relative="1" as="geometry" />
        </mxCell>
        <mxCell id="On_WgqyoTD6OHEVV_2II-39" style="edgeStyle=orthogonalEdgeStyle;rounded=0;orthogonalLoop=1;jettySize=auto;html=1;exitX=0.5;exitY=1;exitDx=0;exitDy=0;entryX=0.5;entryY=0;entryDx=0;entryDy=0;" edge="1" parent="1" source="On_WgqyoTD6OHEVV_2II-12" target="On_WgqyoTD6OHEVV_2II-23">
          <mxGeometry relative="1" as="geometry" />
        </mxCell>
        <mxCell id="On_WgqyoTD6OHEVV_2II-12" value="课程信息管理" style="rounded=0;whiteSpace=wrap;html=1;" vertex="1" parent="1">
          <mxGeometry x="-140" y="410" width="60" height="60" as="geometry" />
        </mxCell>
        <mxCell id="On_WgqyoTD6OHEVV_2II-13" value="课程申请下架" style="rounded=0;whiteSpace=wrap;html=1;" vertex="1" parent="1">
          <mxGeometry x="-40" y="410" width="60" height="60" as="geometry" />
        </mxCell>
        <mxCell id="On_WgqyoTD6OHEVV_2II-40" style="edgeStyle=orthogonalEdgeStyle;rounded=0;orthogonalLoop=1;jettySize=auto;html=1;exitX=0.5;exitY=1;exitDx=0;exitDy=0;entryX=0.5;entryY=0;entryDx=0;entryDy=0;" edge="1" parent="1" source="On_WgqyoTD6OHEVV_2II-16" target="On_WgqyoTD6OHEVV_2II-19">
          <mxGeometry relative="1" as="geometry" />
        </mxCell>
        <mxCell id="On_WgqyoTD6OHEVV_2II-41" style="edgeStyle=orthogonalEdgeStyle;rounded=0;orthogonalLoop=1;jettySize=auto;html=1;exitX=0.5;exitY=1;exitDx=0;exitDy=0;entryX=0.5;entryY=0;entryDx=0;entryDy=0;" edge="1" parent="1" source="On_WgqyoTD6OHEVV_2II-16" target="On_WgqyoTD6OHEVV_2II-17">
          <mxGeometry relative="1" as="geometry" />
        </mxCell>
        <mxCell id="On_WgqyoTD6OHEVV_2II-42" style="edgeStyle=orthogonalEdgeStyle;rounded=0;orthogonalLoop=1;jettySize=auto;html=1;exitX=0.5;exitY=1;exitDx=0;exitDy=0;" edge="1" parent="1" source="On_WgqyoTD6OHEVV_2II-16" target="On_WgqyoTD6OHEVV_2II-18">
          <mxGeometry relative="1" as="geometry" />
        </mxCell>
        <mxCell id="On_WgqyoTD6OHEVV_2II-16" value="公告论坛模块" style="rounded=0;whiteSpace=wrap;html=1;" vertex="1" parent="1">
          <mxGeometry x="570" y="290" width="120" height="60" as="geometry" />
        </mxCell>
        <mxCell id="On_WgqyoTD6OHEVV_2II-17" value="发表帖子" style="rounded=0;whiteSpace=wrap;html=1;" vertex="1" parent="1">
          <mxGeometry x="520" y="410" width="50" height="60" as="geometry" />
        </mxCell>
        <mxCell id="On_WgqyoTD6OHEVV_2II-18" value="删除帖子" style="rounded=0;whiteSpace=wrap;html=1;" vertex="1" parent="1">
          <mxGeometry x="700" y="410" width="50" height="60" as="geometry" />
        </mxCell>
        <mxCell id="On_WgqyoTD6OHEVV_2II-19" value="评论帖子" style="rounded=0;whiteSpace=wrap;html=1;" vertex="1" parent="1">
          <mxGeometry x="605" y="410" width="50" height="60" as="geometry" />
        </mxCell>
        <mxCell id="On_WgqyoTD6OHEVV_2II-20" value="管理课程信息" style="rounded=0;whiteSpace=wrap;html=1;" vertex="1" parent="1">
          <mxGeometry x="-220" y="530" width="40" height="60" as="geometry" />
        </mxCell>
        <mxCell id="On_WgqyoTD6OHEVV_2II-21" value="发布和管理课程资料" style="rounded=0;whiteSpace=wrap;html=1;" vertex="1" parent="1">
          <mxGeometry x="-150" y="530" width="40" height="60" as="geometry" />
        </mxCell>
        <mxCell id="On_WgqyoTD6OHEVV_2II-22" value="发布和管理课程作业" style="rounded=0;whiteSpace=wrap;html=1;" vertex="1" parent="1">
          <mxGeometry x="-90" y="530" width="40" height="60" as="geometry" />
        </mxCell>
        <mxCell id="On_WgqyoTD6OHEVV_2II-23" value="建立课程相关分组" style="rounded=0;whiteSpace=wrap;html=1;" vertex="1" parent="1">
          <mxGeometry x="-30" y="530" width="40" height="60" as="geometry" />
        </mxCell>
      </root>
    </mxGraphModel>
  </diagram>
</mxfile>
